<?xml version="1.0" encoding="iso-8859-1"?>
<!-- Generator: Adobe Illustrator 19.0.0, SVG Export Plug-In . SVG Version: 6.00 Build 0)  -->
<svg version="1.1" id="Capa_1" xmlns="http://www.w3.org/2000/svg" xmlns:xlink="http://www.w3.org/1999/xlink" x="0px" y="0px"
	 viewBox="0 0 512 512" style="enable-background:new 0 0 512 512;" xml:space="preserve">
<g>
	<path style="fill:#0A87EB;" d="M37.632,320.769c-3.157-3.243-7.501-5.06-12.032-5.035c-9.412,0.026-17.041,7.654-17.067,17.067
		v136.533c0,9.429,7.637,17.067,17.067,17.067s17.067-7.637,17.067-17.067V332.801C42.692,328.279,40.875,323.935,37.632,320.769z"
		/>
	<path style="fill:#0A87EB;" d="M486.4,315.735c-9.395,0.068-16.998,7.671-17.067,17.067v136.533
		c0,9.429,7.637,17.067,17.067,17.067c9.429,0,17.067-7.637,17.067-17.067V332.801C503.441,323.389,495.812,315.769,486.4,315.735z"
		/>
</g>
<polygon style="fill:#78B9EB;" points="290.927,332.801 307.2,401.068 221.978,332.801 42.667,332.801 42.667,469.335 
	469.333,469.335 469.333,332.801 "/>
<g>
	<path style="fill:#231F20;" d="M486.4,307.201c-10.82,0.034-20.446,6.869-24.047,17.067H280.124l13.022,54.613l-68.173-54.613
		H49.656c-1.212-3.567-3.234-6.801-5.905-9.455c-4.762-4.898-11.315-7.646-18.15-7.612c-14.14,0-25.6,11.46-25.6,25.6v136.533
		c-0.026,14.106,11.383,25.566,25.489,25.591c10.854,0.017,20.54-6.818,24.141-17.058h412.74
		c4.685,13.303,19.268,20.292,32.572,15.607c10.24-3.61,17.075-13.286,17.058-24.141V332.801
		C512,318.662,500.54,307.201,486.4,307.201z M25.6,477.868c-4.71,0-8.533-3.823-8.533-8.533V332.801
		c0-4.71,3.823-8.533,8.533-8.533c2.304-0.009,4.506,0.939,6.084,2.611c1.579,1.562,2.466,3.703,2.449,5.922v136.533
		C34.133,474.054,30.31,477.868,25.6,477.868z M51.2,341.335h167.774l102.281,81.92l-19.516-81.92H460.8v119.467H51.2V341.335z
		 M494.933,469.335c0,4.71-3.823,8.533-8.533,8.533c-4.71,0-8.533-3.823-8.533-8.533V332.801c0-2.295,0.939-4.497,2.611-6.076
		c1.553-1.587,3.695-2.475,5.922-2.458c4.71,0,8.533,3.823,8.533,8.533V469.335z"/>
	<path style="fill:#231F20;" d="M256,290.135c-4.71,0-8.533-3.823-8.533-8.533v-51.2c0-4.71,3.823-8.533,8.533-8.533
		c4.71,0,8.533,3.823,8.533,8.533v51.2C264.533,286.32,260.71,290.135,256,290.135z"/>
	<path style="fill:#231F20;" d="M256,187.735c-4.71,0-8.533-3.823-8.533-8.533v-51.2c0-4.71,3.823-8.533,8.533-8.533
		c4.71,0,8.533,3.823,8.533,8.533v51.2C264.533,183.92,260.71,187.735,256,187.735z"/>
	<path style="fill:#231F20;" d="M256,85.335c-4.71,0-8.533-3.823-8.533-8.533v-51.2c0-4.71,3.823-8.533,8.533-8.533
		c4.71,0,8.533,3.823,8.533,8.533v51.2C264.533,81.52,260.71,85.335,256,85.335z"/>
	<path style="fill:#231F20;" d="M207.002,289.827c-2.261,0.009-4.437-0.896-6.033-2.5l-36.207-36.198
		c-3.277-3.388-3.183-8.789,0.213-12.066c3.311-3.191,8.55-3.191,11.853,0l36.207,36.198c3.328,3.337,3.328,8.738,0,12.066
		C211.43,288.931,209.263,289.827,207.002,289.827z"/>
	<path style="fill:#231F20;" d="M134.588,217.422c-2.261,0-4.437-0.896-6.033-2.5l-36.207-36.207
		c-3.277-3.388-3.183-8.789,0.213-12.066c3.311-3.191,8.55-3.191,11.853,0l36.207,36.207c3.328,3.337,3.328,8.738,0,12.066
		C139.017,216.526,136.849,217.422,134.588,217.422z"/>
	<path style="fill:#231F20;" d="M62.182,145.017c-2.261,0-4.437-0.905-6.033-2.509L19.942,106.31
		c-3.277-3.388-3.183-8.789,0.213-12.066c3.311-3.191,8.55-3.191,11.853,0l36.207,36.207c3.328,3.337,3.328,8.738,0,12.066
		C66.611,144.121,64.444,145.017,62.182,145.017z"/>
	<path style="fill:#231F20;" d="M304.998,289.827c-4.71,0-8.533-3.823-8.533-8.533c0-2.261,0.896-4.429,2.5-6.033l36.207-36.198
		c3.388-3.277,8.789-3.183,12.066,0.213c3.191,3.311,3.191,8.55,0,11.853l-36.207,36.198
		C309.436,288.931,307.26,289.836,304.998,289.827z"/>
	<path style="fill:#231F20;" d="M377.412,217.422c-4.71,0-8.533-3.823-8.533-8.533c0-2.261,0.896-4.429,2.5-6.033l36.207-36.207
		c3.277-3.388,8.678-3.482,12.066-0.213c3.388,3.277,3.482,8.678,0.213,12.066c-0.068,0.068-0.137,0.145-0.213,0.213l-36.207,36.207
		C381.85,216.526,379.674,217.422,377.412,217.422z"/>
	<path style="fill:#231F20;" d="M449.818,145.017c-4.71,0-8.533-3.823-8.533-8.533c0-2.261,0.896-4.429,2.5-6.033l36.207-36.207
		c3.277-3.388,8.678-3.482,12.066-0.213s3.482,8.678,0.213,12.066c-0.068,0.068-0.137,0.137-0.213,0.213l-36.207,36.198
		C454.255,144.112,452.079,145.017,449.818,145.017z"/>
</g>
<g>
</g>
<g>
</g>
<g>
</g>
<g>
</g>
<g>
</g>
<g>
</g>
<g>
</g>
<g>
</g>
<g>
</g>
<g>
</g>
<g>
</g>
<g>
</g>
<g>
</g>
<g>
</g>
<g>
</g>
</svg>
