<?xml version="1.0" encoding="iso-8859-1"?>
<!-- Generator: Adobe Illustrator 19.0.0, SVG Export Plug-In . SVG Version: 6.00 Build 0)  -->
<svg version="1.1" id="Capa_1" xmlns="http://www.w3.org/2000/svg" xmlns:xlink="http://www.w3.org/1999/xlink" x="0px" y="0px"
	 viewBox="0 0 512 512" style="enable-background:new 0 0 512 512;" xml:space="preserve">
<rect y="60.061" style="fill:#279FC9;" width="43.472" height="391.879"/>
<rect x="28.212" y="60.061" style="fill:#34ABE0;" width="483.788" height="391.879"/>
<rect x="65.829" y="97.677" style="fill:#F9EED7;" width="408.555" height="316.646"/>
<g>
	<polygon style="fill:#FCF8F2;" points="375.153,97.676 232.932,414.322 199.495,414.322 341.716,97.676 	"/>
	<polygon style="fill:#FCF8F2;" points="308.279,97.676 166.058,414.322 105.454,414.322 247.675,97.676 	"/>
</g>
<polygon style="fill:#494B5B;" points="115.987,160.779 212.117,217.204 220.477,139.882 257.048,176.453 343.775,144.061 
	343.775,213.024 435.726,169.139 373.9,260.702 445.13,253.775 385.57,313.335 429.456,357.22 327.056,327.963 298.844,356.175 
	256,298.425 174.501,361.4 174.501,321.694 88.819,338.412 163.007,264.224 "/>
<g>
</g>
<g>
</g>
<g>
</g>
<g>
</g>
<g>
</g>
<g>
</g>
<g>
</g>
<g>
</g>
<g>
</g>
<g>
</g>
<g>
</g>
<g>
</g>
<g>
</g>
<g>
</g>
<g>
</g>
</svg>
