<?xml version="1.0" encoding="iso-8859-1"?>
<!-- Generator: Adobe Illustrator 19.0.0, SVG Export Plug-In . SVG Version: 6.00 Build 0)  -->
<svg xmlns="http://www.w3.org/2000/svg" xmlns:xlink="http://www.w3.org/1999/xlink" version="1.1" id="Capa_1" x="0px" y="0px" viewBox="0 0 512 512" style="enable-background:new 0 0 512 512;" xml:space="preserve" width="512px" height="512px">
<g>
	<g>
		<path d="M485.205,41.568h-6.888c-4.142,0-7.5,3.358-7.5,7.5c0,4.142,3.358,7.5,7.5,7.5h6.888c6.504,0,11.795,5.291,11.795,11.795    v59.016c0,6.504-5.291,11.795-11.795,11.795H26.795c-6.504,0-11.795-5.291-11.795-11.795V68.362    c0-6.504,5.291-11.795,11.795-11.795h177.829c0.011,0,0.022,0.001,0.033,0.001c0.011,0,0.022-0.001,0.033-0.001h102.62    c0.011,0,0.022,0.001,0.033,0.001s0.022-0.001,0.033-0.001h134.901c4.142,0,7.5-3.358,7.5-7.5c0-4.142-3.358-7.5-7.5-7.5h-18.523    l-1.982-10.955C419.6,18.61,409.172,9.9,396.976,9.9h-69.127c-12.196,0-22.625,8.71-24.796,20.712l-1.982,10.955H210.93    l-1.982-10.955C206.776,18.61,196.348,9.9,184.152,9.9h-69.127c-12.196,0-22.625,8.71-24.796,20.712l-1.982,10.955H26.795    C12.02,41.568,0,53.588,0,68.362v59.016c0,14.57,11.69,26.452,26.183,26.779v224.224c0,4.142,3.358,7.5,7.5,7.5    c4.142,0,7.5-3.358,7.5-7.5V154.172h429.635v277.79c0,7.696-6.262,13.958-13.958,13.958H55.141    c-7.696,0-13.958-6.262-13.958-13.958V413.94c0-4.142-3.358-7.5-7.5-7.5c-4.142,0-7.5,3.358-7.5,7.5v18.024    c0,15.967,12.991,28.958,28.958,28.958h5.874v20.226c0,11.553,9.399,20.952,20.952,20.952h31.824    c11.553,0,20.952-9.399,20.952-20.952v-20.226H377.26v20.226c0,11.553,9.399,20.952,20.952,20.952h31.824    c11.553,0,20.952-9.399,20.952-20.952v-20.226h5.874c15.967,0,28.958-12.991,28.958-28.958V154.158    c14.49-0.328,26.18-12.21,26.18-26.78V68.362C512,53.588,499.98,41.568,485.205,41.568z M317.812,33.284    c0.879-4.857,5.099-8.383,10.036-8.383h69.127c4.936,0,9.157,3.525,10.036,8.383l1.499,8.284h-92.196L317.812,33.284z     M104.989,33.284c0.878-4.857,5.099-8.383,10.036-8.383h69.127c4.937,0,9.157,3.525,10.036,8.383l1.499,8.284H103.49    L104.989,33.284z M113.79,487.099H81.966c-3.282,0-5.952-2.67-5.952-5.952V460.92h43.727v20.226h0.001    C119.742,484.429,117.072,487.099,113.79,487.099z M435.985,481.146c0,3.282-2.67,5.952-5.952,5.952H398.21    c-3.282,0-5.952-2.67-5.952-5.952V460.92h43.727V481.146z" fill="#D80027"/>
	</g>
</g>
<g>
	<g>
		<path d="M310.366,274.571c-4.142,0-7.5,3.358-7.5,7.5v9.025c0,4.143,3.358,7.5,7.5,7.5c4.142,0,7.5-3.358,7.5-7.5v-9.025    C317.866,277.929,314.508,274.571,310.366,274.571z" fill="#D80027"/>
	</g>
</g>
<g>
	<g>
		<path d="M275.261,285.842c-3.123-2.722-7.86-2.397-10.582,0.726c-2.192,2.515-5.356,3.958-8.68,3.958    c-3.324,0-6.487-1.442-8.68-3.958c-2.721-3.123-7.46-3.448-10.581-0.726c-3.123,2.721-3.448,7.459-0.726,10.582    c5.042,5.785,12.327,9.102,19.988,9.102s14.946-3.317,19.987-9.102C278.709,293.301,278.383,288.564,275.261,285.842z" fill="#D80027"/>
	</g>
</g>
<g>
	<g>
		<path d="M283.673,79.868c0.465-2.368-0.22-4.917-2.055-6.753c-1.835-1.835-4.384-2.519-6.753-2.055    c-13.033-8.892-30.996-7.568-42.551,3.987c-13.061,13.061-13.061,34.311,0,47.372c6.53,6.53,15.108,9.795,23.686,9.795    s17.156-3.265,23.686-9.795C291.241,110.864,292.565,92.901,283.673,79.868z M269.08,111.813c-7.212,7.211-18.947,7.211-26.159,0    c-7.212-7.212-7.212-18.947,0-26.159c5.323-5.323,13.107-6.704,19.721-4.169l-7.178,7.178c-2.929,2.929-2.929,7.678,0,10.606    c1.464,1.464,3.384,2.197,5.303,2.197s3.839-0.732,5.303-2.197l7.178-7.178C275.784,98.705,274.403,106.49,269.08,111.813z" fill="#D80027"/>
	</g>
</g>
<g>
	<g>
		<path d="M178.071,65.827c-1.347-2.003-3.633-3.322-6.229-3.322c-2.595,0-4.882,1.319-6.229,3.322    c-15.503,2.928-27.269,16.565-27.269,32.907c0,18.47,15.027,33.497,33.497,33.497c18.47,0,33.497-15.027,33.497-33.497    C205.34,82.391,193.574,68.755,178.071,65.827z M171.843,117.229c-10.199,0-18.497-8.298-18.497-18.497    c0-7.528,4.527-14.009,10.997-16.893V91.99c0,4.142,3.358,7.5,7.5,7.5c4.142,0,7.5-3.358,7.5-7.5V81.84    c6.469,2.884,10.997,9.364,10.997,16.893C190.34,108.932,182.042,117.229,171.843,117.229z" fill="#D80027"/>
	</g>
</g>
<g>
	<g>
		<path d="M93.913,65.826c-1.345-2.003-3.632-3.322-6.227-3.322c-2.595,0-4.882,1.319-6.229,3.322    c-15.503,2.928-27.269,16.565-27.269,32.907c0,18.47,15.027,33.497,33.497,33.497c18.47,0,33.497-15.027,33.497-33.497    C121.182,82.392,109.416,68.755,93.913,65.826z M87.686,117.231c-10.199,0-18.497-8.298-18.497-18.497    c0-7.528,4.528-14.009,10.997-16.893v10.151c0,4.142,3.358,7.5,7.5,7.5c4.142,0,7.5-3.358,7.5-7.5V81.841    c6.47,2.884,10.997,9.364,10.997,16.893C106.183,108.933,97.885,117.231,87.686,117.231z" fill="#D80027"/>
	</g>
</g>
<g>
	<g>
		<path d="M430.543,65.827c-1.346-2.003-3.633-3.322-6.228-3.322c-2.595,0-4.882,1.319-6.229,3.322    c-15.503,2.928-27.268,16.565-27.268,32.907c0,18.47,15.027,33.497,33.497,33.497c18.47,0,33.497-15.027,33.497-33.497    C457.811,82.391,446.046,68.755,430.543,65.827z M424.315,117.229c-10.199,0-18.497-8.298-18.497-18.497    c0-7.528,4.527-14.009,10.997-16.893V91.99c0,4.142,3.358,7.5,7.5,7.5c4.142,0,7.5-3.358,7.5-7.5V81.84    c6.469,2.884,10.997,9.364,10.997,16.893C442.811,108.932,434.514,117.229,424.315,117.229z" fill="#D80027"/>
	</g>
</g>
<g>
	<g>
		<path d="M445.54,205.387l-6.782-16.746c-3.971-9.809-13.376-16.147-23.959-16.147H97.201c-10.583,0-19.988,6.338-23.959,16.146    l-6.782,16.748c-2.037,5.03-1.442,10.72,1.591,15.22c3.033,4.5,8.083,7.186,13.51,7.186h5.451v144.649    c-0.001,12.864,10.466,23.33,23.33,23.33h291.315c12.865,0,23.331-10.466,23.331-23.331V227.794h5.451    c5.427,0,10.477-2.686,13.51-7.186C446.982,216.108,447.576,210.418,445.54,205.387z M409.989,372.443    c0,4.594-3.737,8.331-8.331,8.331H110.342c-4.594,0-8.331-3.737-8.331-8.331V227.794h307.978V372.443z M431.512,212.224    c-0.255,0.378-0.616,0.57-1.072,0.57H81.561c-0.456,0-0.817-0.192-1.072-0.57c-0.254-0.378-0.297-0.784-0.126-1.207l6.782-16.747    c1.667-4.117,5.614-6.777,10.056-6.777H414.8c4.442,0,8.389,2.66,10.056,6.777l6.782,16.746    C431.809,211.439,431.766,211.846,431.512,212.224z" fill="#D80027"/>
	</g>
</g>
<g>
	<g>
		<path d="M346.385,65.826c-1.346-2.003-3.632-3.322-6.228-3.322c-2.595,0-4.882,1.319-6.228,3.322    c-15.503,2.928-27.269,16.565-27.269,32.907c0,18.47,15.027,33.497,33.497,33.497c18.47,0,33.497-15.027,33.497-33.497    C373.654,82.392,361.888,68.755,346.385,65.826z M340.157,117.231c-10.199,0-18.497-8.298-18.497-18.497    c0-7.528,4.528-14.009,10.997-16.893v10.151c0,4.142,3.358,7.5,7.5,7.5c4.142,0,7.5-3.358,7.5-7.5V81.841    c6.47,2.884,10.997,9.364,10.997,16.893C358.654,108.933,350.356,117.231,340.157,117.231z" fill="#D80027"/>
	</g>
</g>
<g>
	<g>
		<path d="M201.634,274.571c-4.142,0-7.5,3.358-7.5,7.5v9.025c0,4.143,3.358,7.5,7.5,7.5c4.142,0,7.5-3.358,7.5-7.5v-9.025    C209.134,277.929,205.776,274.571,201.634,274.571z" fill="#D80027"/>
	</g>
</g>
<g>
</g>
<g>
</g>
<g>
</g>
<g>
</g>
<g>
</g>
<g>
</g>
<g>
</g>
<g>
</g>
<g>
</g>
<g>
</g>
<g>
</g>
<g>
</g>
<g>
</g>
<g>
</g>
<g>
</g>
</svg>
