<?xml version="1.0" encoding="iso-8859-1"?>
<!-- Generator: Adobe Illustrator 19.0.0, SVG Export Plug-In . SVG Version: 6.00 Build 0)  -->
<svg xmlns="http://www.w3.org/2000/svg" xmlns:xlink="http://www.w3.org/1999/xlink" version="1.1" id="Capa_1" x="0px" y="0px" viewBox="0 0 496.208 496.208" style="enable-background:new 0 0 496.208 496.208;" xml:space="preserve" width="512px" height="512px">
<g>
	<g>
		<g>
			<path d="M104.104,264.248v72.168h48v-72.168c9.968-7.512,16-19.328,16-31.832c0-22.048-17.944-40-40-40     c-22.056,0-40,17.944-40,40C88.104,244.92,94.136,256.736,104.104,264.248z M128.104,208.416c13.232,0,24,10.768,24,24     c0,8.552-4.496,16.272-12.024,20.648l-3.976,2.312v65.04h-16v-65.04l-3.976-2.312c-7.528-4.376-12.024-12.096-12.024-20.648     C104.104,219.184,114.872,208.416,128.104,208.416z" fill="#933EC5"/>
			<path d="M344.104,192.208c-32.808,0-63.136,10.552-88,28.296v-60.296h-16V112c0-61.76-50.24-112-112-112s-112,50.24-112,112     v48.208h-16v208h192v128h16v-152c0-74.992,61.008-136,136-136s136,61.008,136,136v152h16v-152     C496.104,260.392,427.92,192.208,344.104,192.208z M32.104,112c0-52.936,43.064-96,96-96c52.936,0,96,43.064,96,96v48.208h-32     v-48c0-35.288-28.712-64-64-64c-35.288,0-64,28.712-64,64v48h-32V112z M176.104,112.208v48h-96v-48c0-26.472,21.528-48,48-48     S176.104,85.736,176.104,112.208z M240.104,233.664c-29.472,27.736-48,66.976-48,110.544v8h-176v-176h224V233.664z" fill="#933EC5"/>
			<path d="M344.104,224.208c-66.168,0-120,53.832-120,120c0,33.88,14.432,66.352,39.592,89.08l10.72-11.872     c-21.808-19.704-34.312-47.84-34.312-77.208c0-57.344,46.656-104,104-104s104,46.656,104,104c0,19.304-5.32,38.144-15.392,54.48     l13.624,8.392c11.624-18.864,17.768-40.608,17.768-62.872C464.104,278.04,410.272,224.208,344.104,224.208z" fill="#933EC5"/>
			<path d="M344.104,448.208c-21.072,0-41.36-6.264-58.664-18.112l-9.032,13.2c19.976,13.688,43.384,20.912,67.696,20.912     c35.864,0,69.576-15.864,92.488-43.52l-12.328-10.2C404.408,434.456,375.192,448.208,344.104,448.208z" fill="#933EC5"/>
			<path d="M344.104,368.208c13.232,0,24-10.768,24-24s-10.768-24-24-24s-24,10.768-24,24S330.872,368.208,344.104,368.208z      M344.104,336.208c4.416,0,8,3.584,8,8c0,4.416-3.584,8-8,8c-4.416,0-8-3.584-8-8     C336.104,339.792,339.688,336.208,344.104,336.208z" fill="#933EC5"/>
			<path d="M288.104,344.208c0,12.16,3.832,23.72,11.08,33.448l12.832-9.56c-5.176-6.944-7.912-15.208-7.912-23.888     c0-22.056,17.944-40,40-40c22.056,0,40,17.944,40,40c0,22.056-17.944,40-40,40c-8.016,0-15.752-2.36-22.36-6.832l-8.952,13.264     c9.264,6.264,20.096,9.568,31.312,9.568c30.872,0,56-25.128,56-56s-25.128-56-56-56S288.104,313.336,288.104,344.208z" fill="#933EC5"/>
			<path d="M256.104,344.208c0,48.52,39.48,88,88,88c38.288,0,71.936-24.456,83.728-60.856l-15.216-4.92     c-9.656,29.768-37.176,49.776-68.512,49.776c-39.704,0-72-32.296-72-72c0-2.584,0.136-5.144,0.4-7.656l-15.904-1.688     C256.272,337.928,256.104,341.04,256.104,344.208z" fill="#933EC5"/>
			<path d="M260.32,317.2l15.232,4.904c9.624-29.84,37.168-49.896,68.552-49.896c4.976,0,9.944,0.504,14.776,1.512l3.248-15.672     c-5.888-1.216-11.952-1.84-18.024-1.84C305.752,256.208,272.08,280.712,260.32,317.2z" fill="#933EC5"/>
			<path d="M431.664,353.024c0.288-2.904,0.44-5.84,0.44-8.816c0-35.176-20.88-66.912-53.192-80.84l-6.328,14.68     c26.432,11.408,43.52,37.368,43.52,66.16c0,2.432-0.12,4.832-0.36,7.2L431.664,353.024z" fill="#933EC5"/>
		</g>
	</g>
</g>
<g>
</g>
<g>
</g>
<g>
</g>
<g>
</g>
<g>
</g>
<g>
</g>
<g>
</g>
<g>
</g>
<g>
</g>
<g>
</g>
<g>
</g>
<g>
</g>
<g>
</g>
<g>
</g>
<g>
</g>
</svg>
